#!OML:ASF H:\Dans Jumps\Project 1\Capture day 1\Session 1\subject.ASF
:FULLY-SPECIFIED
:DEGREES
258
root 0.712601 17.4811 -14.9504 11.5345 -1.51949 -0.910506
lowerback 4.63535 0.169657 -0.208332
upperback 6.73026 0.170357 1.52189
thorax 4.35089 0.0319887 1.68885
lowerneck -11.9071 0.620634 -1.89929
upperneck 34.8977 0.930561 1.35406
head 13.8018 0.329343 1.01679
rclavicle 1.98785e-015 3.97569e-016
rhumerus -16.3522 1.74581 -87.42
rradius 31.0672
rwrist 26.1021
rhand -18.8288 -27.8092
rfingers 7.12502
rthumb 7.47043 -57.6573
lclavicle 1.98785e-015 3.97569e-016
lhumerus -14.6217 -21.7024 93.3816
lradius 26.2569
lwrist 10.3355
lhand -28.5623 -3.90991
lfingers 7.12502
lthumb -1.92903 26.0611
rfemur -27.3592 -2.1352 19.124
rtibia 30.1588
rfoot -13.0401 -4.98107
rtoes 11.0207
lfemur -26.1346 6.77535 -20.4055
ltibia 27.2334
lfoot -10.615 6.00495
ltoes 6.62894
259
root 0.712273 17.4668 -14.9552 11.4233 -1.56513 -0.895974
lowerback 4.70512 0.177673 -0.239887
upperback 6.75595 0.180948 1.50845
thorax 4.33838 0.0360719 1.69242
lowerneck -11.8987 0.626455 -1.91115
upperneck 34.879 0.936026 1.37098
head 13.7912 0.33241 1.02611
rclavicle -1.98785e-015 -3.57812e-015
rhumerus -16.3131 1.92776 -87.586
rradius 31.2639
rwrist 25.9057
rhand -18.8764 -27.8215
rfingers 7.12502
rthumb 7.42444 -57.6712
lclavicle -1.98785e-015 -3.57812e-015
lhumerus -14.7335 -22.2079 93.5249
lradius 26.538
lwrist 10.7437
lhand -28.7597 -4.06853
lfingers 7.12502
lthumb -2.11964 25.9007
rfemur -27.47 -2.09677 19.1056
rtibia 30.5366
rfoot -13.1527 -5.01392
rtoes 10.9168
lfemur -26.2308 6.82146 -20.4216
ltibia 27.6141
lfoot -10.7488 6.06052
ltoes 6.52139
260
root 0.711888 17.4539 -14.9587 11.3064 -1.6019 -0.885109
lowerback 4.76371 0.181518 -0.263152
upperback 6.78578 0.185936 1.49659
thorax 4.33671 0.0376274 1.69309
lowerneck -11.8981 0.632807 -1.92413
upperneck 34.8787 0.942844 1.38758
head 13.7905 0.335702 1.03602
rclavicle 2.88238e-015 -5.1684e-015
rhumerus -16.2691 2.08302 -87.7551
rradius 31.441
rwrist 25.715
rhand -18.931 -27.8213
rfingers 7.12502
rthumb 7.37174 -57.6728
lclavicle 2.88238e-015 -5.1684e-015
lhumerus -14.8429 -22.689 93.673
lradius 26.7887
lwrist 11.1068
lhand -28.9467 -4.25157
lfingers 7.12502
lthumb -2.30025 25.7158
rfemur -27.5385 -2.05857 19.0908
rtibia 30.8587
rfoot -13.2482 -5.05013
rtoes 10.82
lfemur -26.2917 6.86452 -20.4319
ltibia 27.9441
lfoot -10.8613 6.10488
ltoes 6.42407
261
root 0.711444 17.4428 -14.9611 11.1865 -1.6294 -0.881218
lowerback 4.81165 0.181175 -0.276152
upperback 6.81825 0.185328 1.48794
thorax 4.34404 0.0367208 1.69146
lowerneck -11.9045 0.641944 -1.92955
upperneck 34.8965 0.954828 1.39559
head 13.7995 0.340912 1.04222
rclavicle -7.95139e-016 -1.17283e-014
rhumerus -16.2253 2.21756 -87.9252
rradius 31.6019
rwrist 25.5319
rhand -18.996 -27.8102
rfingers 7.12502
rthumb 7.30897 -57.664
lclavicle -7.95139e-016 -1.17283e-014
lhumerus -14.9453 -23.1409 93.8269
lradius 26.9993
lwrist 11.4197
lhand -29.1088 -4.45584
lfingers 7.12502
lthumb -2.45683 25.5098
rfemur -27.5612 -2.0251 19.0841
rtibia 31.1145
rfoot -13.3278 -5.08498
rtoes 10.7377
lfemur -26.3156 6.90742 -20.4328
ltibia 28.2153
lfoot -10.9535 6.13246
ltoes 6.34807
262
root 0.710968 17.4341 -14.9622 11.0655 -1.64902 -0.886762
lowerback 4.84689 0.178499 -0.275627
upperback 6.85319 0.181663 1.48229
thorax 4.36122 0.034775 1.68544
lowerneck -11.9193 0.652886 -1.92444
upperneck 34.9344 0.969898 1.39477
head 13.8195 0.347488 1.04383
rclavicle -1.59028e-015 1.78906e-015
rhumerus -16.1851 2.33709 -88.096
rradius 31.7485
rwrist 25.3491
rhand -19.071 -27.7901
rfingers 7.12502
rthumb 7.23663 -57.6464
lclavicle -1.59028e-015 1.78906e-015
lhumerus -15.0384 -23.569 93.9856
lradius 27.1639
lwrist 11.6722
lhand -29.2138 -4.64251
lfingers 7.12502
lthumb -2.55819 25.3219
rfemur -27.5357 -1.9987 19.0885
rtibia 31.2977
rfoot -13.3864 -5.11395
rtoes 10.6706
lfemur -26.2993 6.95208 -20.4215
ltibia 28.4212
lfoot -11.0274 6.1415
ltoes 6.28986
263
root 0.710481 17.428 -14.9622 10.9538 -1.66069 -0.898874
lowerback 4.86437 0.174564 -0.264789
upperback 6.88445 0.176381 1.47942
thorax 4.38457 0.0324243 1.6766
lowerneck -11.9362 0.663372 -1.91017
upperneck 34.9928 0.984588 1.38629
head 13.8494 0.353927 1.04101
rclavicle -3.8763e-015 -1.17283e-014
rhumerus -16.1561 2.44922 -88.2648
rradius 31.8833
rwrist 25.1672
rhand -19.1459 -27.7739
rfingers 7.12502
rthumb 7.16436 -57.6327
lclavicle -3.8763e-015 -1.17283e-014
lhumerus -15.1239 -23.9658 94.1533
lradius 27.2755
lwrist 11.8596
lhand -29.2554 -4.79956
lfingers 7.12502
lthumb -2.59837 25.1644
rfemur -27.4737 -1.98278 19.1012
rtibia 31.4071
rfoot -13.426 -5.13432
rtoes 10.6264
lfemur -26.2519 6.99623 -20.4019
ltibia 28.5572
lfoot -11.08 6.13409
ltoes 6.24179
264
root 0.710078 17.4249 -14.9609 10.8528 -1.66643 -0.915054
lowerback 4.86291 0.169736 -0.244586
upperback 6.91183 0.169988 1.4779
thorax 4.41453 0.0299215 1.66396
lowerneck -11.9544 0.672074 -1.89176
upperneck 35.0705 0.99738 1.37281
head 13.8884 0.359281 1.03546
rclavicle 2.38542e-015 4.57205e-015
rhumerus -16.1347 2.55734 -88.4314
rradius 32.0024
rwrist 24.9863
rhand -19.2055 -27.7662
rfingers 7.12502
rthumb 7.10679 -57.6268
lclavicle 2.38542e-015 4.57205e-015
lhumerus -15.2018 -24.3449 94.3292
lradius 27.3302
lwrist 11.9855
lhand -29.2392 -4.94615
lfingers 7.12502
lthumb -2.58275 25.018
rfemur -27.3766 -1.97891 19.1188
rtibia 31.4449
rfoot -13.4499 -5.13966
rtoes 10.6041
lfemur -26.1707 7.03681 -20.3765
ltibia 28.6206
lfoot -11.1144 6.11322
ltoes 6.20637
265
root 0.709656 17.4245 -14.9583 10.7746 -1.66661 -0.929252
lowerback 4.83371 0.16453 -0.222277
upperback 6.92974 0.163113 1.47591
thorax 4.4501 0.0273321 1.64971
lowerneck -11.9709 0.676628 -1.87344
upperneck 35.1671 1.00414 1.35933
head 13.9359 0.361886 1.02926
rclavicle -4.17448e-015 -5.36719e-015
rhumerus -16.1253 2.66238 -88.5954
rradius 32.1037
rwrist 24.82
rhand -19.2543 -27.7586
rfingers 7.12502
rthumb 7.05967 -57.6209
lclavicle -4.17448e-015 -5.36719e-015
lhumerus -15.2742 -24.7117 94.5128
lradius 27.3289
lwrist 12.0542
lhand -29.1327 -5.0365
lfingers 7.12502
lthumb -2.47989 24.9288
rfemur -27.2626 -1.98644 19.135
rtibia 31.4166
rfoot -13.4576 -5.13179
rtoes 10.6031
lfemur -26.07 7.07196 -20.3534
ltibia 28.6106
lfoot -11.1277 6.08194
ltoes 6.18603
266
root 0.709219 17.4269 -14.9544 10.7177 -1.66138 -0.940613
lowerback 4.78135 0.15822 -0.198517
upperback 6.93763 0.154808 1.4731
thorax 4.48815 0.0241798 1.63382
lowerneck -11.9881 0.674491 -1.86652
upperneck 35.2827 1.00094 1.35527
head 13.9923 0.359794 1.02766
rclavicle -1.10325e-014 -4.77083e-015
rhumerus -16.1224 2.75716 -88.7565
rradius 32.1753
rwrist 24.6898
rhand -19.2774 -27.7511
rfingers 7.12502
rthumb 7.03735 -57.6141
lclavicle -1.10325e-014 -4.77083e-015
lhumerus -15.3465 -25.0643 94.704
lradius 27.2771
lwrist 12.0659
lhand -28.9501 -5.07978
lfingers 7.12502
lthumb -2.30354 24.8875
rfemur -27.1342 -2.00463 19.1488
rtibia 31.3281
rfoot -13.445 -5.11078
rtoes 10.628
lfemur -25.9485 7.0985 -20.3329
ltibia 28.5287
lfoot -11.1202 6.04208
ltoes 6.19017
267
root 0.708759 17.4319 -14.9491 10.6847 -1.65377 -0.94348
lowerback 4.703 0.150853 -0.181066
upperback 6.93526 0.145024 1.4683
thorax 4.53003 0.0200955 1.61943
lowerneck -11.9982 0.669514 -1.86655
upperneck 35.4027 0.993039 1.35762
head 14.0494 0.355578 1.02917
rclavicle -3.57812e-015 5.1684e-015
rhumerus -16.1277 2.84178 -88.9141
rradius 32.2214
rwrist 24.6027
rhand -19.2649 -27.731
rfingers 7.12502
rthumb 7.04948 -57.5936
lclavicle -3.57812e-015 5.1684e-015
lhumerus -15.4236 -25.4014 94.9022
lradius 27.1852
lwrist 12.0224
lhand -28.6887 -5.07741
lfingers 7.12502
lthumb -2.05111 24.8925
rfemur -26.9983 -2.03344 19.1541
rtibia 31.1859
rfoot -13.4165 -5.07636
rtoes 10.6736
lfemur -25.8112 7.1199 -20.3229
ltibia 28.3782
lfoot -11.0923 5.99427
ltoes 6.22884
268
root 0.708189 17.4392 -14.9427 10.673 -1.64522 -0.938254
lowerback 4.60324 0.142751 -0.171209
upperback 6.92359 0.134182 1.46171
thorax 4.57417 0.0152181 1.60745
lowerneck -12.0053 0.660006 -1.8793
upperneck 35.5244 0.977781 1.37148
head 14.1067 0.348022 1.0365
rclavicle 1.09332e-015 3.97569e-016
rhumerus -16.1433 2.9158 -89.0677
rradius 32.2444
rwrist 24.5646
rhand -19.2119 -27.6765
rfingers 7.12502
rthumb 7.10064 -57.5374
lclavicle 1.09332e-015 3.97569e-016
lhumerus -15.5125 -25.7174 95.1065
lradius 27.0673
lwrist 11.9266
lhand -28.3364 -4.9986
lfingers 7.12502
lthumb -1.71078 24.9743
rfemur -26.8573 -2.06694 19.1509
rtibia 30.9958
rfoot -13.3682 -5.03424
rtoes 10.7406
lfemur -25.6603 7.13915 -20.3232
ltibia 28.1645
lfoot -11.0434 5.93922
ltoes 6.27935
269
root 0.707557 17.4485 -14.9353 10.6796 -1.63697 -0.926522
lowerback 4.48806 0.133228 -0.168814
upperback 6.90311 0.121385 1.45432
thorax 4.61777 0.00908225 1.5988
lowerneck -12.0109 0.648842 -1.89873
upperneck 35.6396 0.959982 1.39044
head 14.1608 0.339203 1.0466
rclavicle -3.27995e-015 -2.78299e-015
rhumerus -16.1768 2.9944 -89.2174
rradius 32.2596
rwrist 24.5632
rhand -19.1083 -27.5996
rfingers 7.12502
rthumb 7.20064 -57.4571
lclavicle -3.27995e-015 -2.78299e-015
lhumerus -15.6179 -26.009 95.318
lradius 26.9366
lwrist 11.7972
lhand -27.9084 -4.84975
lfingers 7.12502
lthumb -1.29746 25.126
rfemur -26.7119 -2.10334 19.1406
rtibia 30.764
rfoot -13.3028 -4.98557
rtoes 10.8301
lfemur -25.4968 7.15836 -20.3324
ltibia 27.8949
lfoot -10.9751 5.87629
ltoes 6.35183
270
root 0.706872 17.4593 -14.9273 10.6994 -1.62999 -0.910611
lowerback 4.36253 0.122899 -0.171502
upperback 6.8759 0.107494 1.44639
thorax 4.66016 0.00221163 1.59239
lowerneck -12.008 0.638322 -1.91932
upperneck 35.7342 0.942828 1.41033
head 14.2038 0.330797 1.05705
rclavicle -3.97569e-016 -3.57812e-015
rhumerus -16.2331 3.07771 -89.364
rradius 32.2775
rwrist 24.587
rhand -18.9643 -27.4948
rfingers 7.12502
rthumb 7.33961 -57.3475
lclavicle -3.97569e-016 -3.57812e-015
lhumerus -15.751 -26.2698 95.5377
lradius 26.8108
lwrist 11.6427
lhand -27.4195 -4.66707
lfingers 7.12502
lthumb -0.825277 25.3111
rfemur -26.5595 -2.1395 19.1257
rtibia 30.4965
rfoot -13.2241 -4.93369
rtoes 10.9326
lfemur -25.3204 7.1758 -20.3471
ltibia 27.5789
lfoot -10.8915 5.80828
ltoes 6.44357
